<svg enable-background="new 0 0 24 24" viewBox="0 0 24 24" xmlns="http://www.w3.org/2000/svg"><path d="m2.293 8.707c.195.195.451.293.707.293s.512-.098.707-.293l5-5c.391-.391.391-1.023 0-1.414l-.964-.964c-.857-.857-1.996-1.329-3.207-1.329-1.212 0-2.351.472-3.207 1.329-.857.856-1.329 1.995-1.329 3.207 0 1.211.472 2.351 1.329 3.207zm.45-5.964c.958-.958 2.628-.958 3.586 0l.257.257-3.586 3.586-.257-.257c-.479-.479-.743-1.116-.743-1.793s.264-1.314.743-1.793zm19.245 12.986c-.15-.53-.699-.839-1.234-.691-.532.15-.841.703-.691 1.234l1.49 5.281-5.281-1.49c-.53-.146-1.083.16-1.234.691-.15.531.159 1.084.691 1.234l7 1.975c.089.024.18.037.271.037.262 0 .517-.103.707-.293.256-.256.354-.63.255-.979zm1.719-9.15-6.286-6.286c-.375-.375-1.039-.375-1.414 0l-6.128 6.128s-.001 0-.001.001 0 .001-.001.001l-3.455 3.455s0 0-.001 0 0 0 0 .001l-6.128 6.128c-.188.187-.293.441-.293.707 0 .265.105.52.293.707l6.286 6.286c.187.188.442.293.707.293s.52-.105.707-.293l15.714-15.714c.391-.391.391-1.024 0-1.414zm-16.421 15.007-4.871-4.872 1.257-1.257 1.388 1.388c.195.195.451.293.707.293s.512-.098.707-.293c.391-.391.391-1.023 0-1.414l-1.388-1.388 2.043-2.043 2.256 2.256c.195.195.451.293.707.293s.512-.098.707-.293c.391-.391.391-1.023 0-1.414l-2.256-2.256 2.043-2.043 1.388 1.388c.195.195.451.293.707.293s.512-.098.707-.293c.391-.39.391-1.023 0-1.414l-1.388-1.388 2.043-2.043 2.256 2.256c.195.195.451.293.707.293s.512-.098.707-.293c.391-.391.391-1.024 0-1.414l-2.256-2.256 1.258-1.258 4.872 4.872z"/></svg>