<svg enable-background="new 0 0 24 24" viewBox="0 0 24 24" xmlns="http://www.w3.org/2000/svg"><path d="m15 14h-1v-2h2.5c.552 0 1-.448 1-1s-.448-1-1-1h-3.5c-.552 0-1 .448-1 1v4c0 .552.448 1 1 1h2c.551 0 1 .449 1 1s-.449 1-1 1h-2c-.552 0-1 .448-1 1s.448 1 1 1h2c1.654 0 3-1.346 3-3s-1.346-3-3-3zm-5.046-3.227c-.016-.065-.024-.13-.051-.189-.005-.01-.003-.021-.008-.03-.023-.045-.062-.075-.09-.115-.041-.059-.078-.118-.13-.167-.048-.045-.104-.074-.159-.107-.054-.033-.104-.07-.164-.093-.068-.026-.139-.032-.212-.043-.048-.008-.09-.029-.14-.029-.011 0-.019.006-.03.006-.066.002-.13.024-.196.04-.065.016-.131.024-.191.052-.01.005-.021.003-.03.008l-2 1c-.494.247-.694.848-.447 1.342.175.35.528.552.895.552.15 0 .303-.034.446-.105l.553-.277v6.382c0 .552.448 1 1 1s1-.448 1-1v-8c0-.011-.006-.019-.006-.03-.002-.067-.024-.131-.04-.197zm11.046-8.773h-2v-1c0-.552-.448-1-1-1s-1 .448-1 1v1h-10v-1c0-.552-.448-1-1-1s-1 .448-1 1v1h-2c-1.654 0-3 1.346-3 3v16c0 1.654 1.346 3 3 3h18c1.654 0 3-1.346 3-3v-16c0-1.654-1.346-3-3-3zm1 19c0 .552-.449 1-1 1h-18c-.552 0-1-.449-1-1v-16c0-.552.449-1 1-1h2v2c0 .552.448 1 1 1s1-.448 1-1v-2h10v2c0 .552.448 1 1 1s1-.448 1-1v-2h2c.552 0 1 .449 1 1z"/></svg>