<svg enable-background="new 0 0 24 24" viewBox="0 0 24 24" xmlns="http://www.w3.org/2000/svg"><path d="m19.21 11.979c.024 0 .048-.001.072-.002 2.085-.148 3.718-1.895 3.718-3.977 0-1.462-.808-2.807-2.109-3.509-.488-.263-1.092-.081-1.355.405-.262.486-.081 1.093.405 1.355.653.352 1.059 1.022 1.059 1.749 0 1.037-.817 1.908-1.86 1.981-.551.039-.966.518-.927 1.068.038.528.477.93.997.93zm-7.21.021c3.033 0 5.5-2.467 5.5-5.5s-2.467-5.5-5.5-5.5-5.5 2.467-5.5 5.5 2.467 5.5 5.5 5.5zm0-9c1.93 0 3.5 1.57 3.5 3.5s-1.57 3.5-3.5 3.5-3.5-1.57-3.5-3.5 1.57-3.5 3.5-3.5zm0 11c-4.411 0-8 2.859-8 6.375v1.625c0 .553.448 1 1 1s1-.447 1-1v-1.625c0-2.412 2.691-4.375 6-4.375s6 1.963 6 4.375v1.625c0 .553.448 1 1 1s1-.447 1-1v-1.625c0-3.516-3.589-6.375-8-6.375zm10.787.992c-.341-.436-.971-.512-1.404-.169-.434.341-.51.969-.169 1.403.514.657.786 1.399.786 2.149v2.625c0 .553.448 1 1 1s1-.447 1-1v-2.625c0-1.202-.419-2.372-1.213-3.383zm-21.574 0c-.794 1.011-1.213 2.181-1.213 3.383v2.625c0 .553.448 1 1 1s1-.447 1-1v-2.625c0-.75.272-1.492.787-2.148.341-.435.265-1.062-.169-1.403-.435-.345-1.064-.268-1.405.168zm3.506-3.015c.024.001.048.002.072.002.52 0 .959-.402.997-.929.039-.551-.376-1.029-.927-1.068-1.044-.074-1.861-.945-1.861-1.982 0-.726.406-1.396 1.059-1.75.486-.262.667-.869.405-1.355-.262-.485-.869-.667-1.355-.404-1.301.702-2.109 2.047-2.109 3.509 0 2.082 1.633 3.829 3.719 3.977z"/></svg>