<svg enable-background="new 0 0 24 24" viewBox="0 0 24 24" xmlns="http://www.w3.org/2000/svg"><path d="m15 13c1.654 0 3-1.346 3-3v-7c0-1.654-1.346-3-3-3h-12c-1.654 0-3 1.346-3 3v7c0 1.654 1.346 3 3 3h2v2c0 .347.18.668.474.851.161.099.343.149.526.149.153 0 .306-.035.447-.105l5.789-2.895zm-3.447-1.895-4.553 2.277v-1.382c0-.552-.448-1-1-1h-3c-.551 0-1-.449-1-1v-7c0-.552.449-1 1-1h12c.551 0 1 .449 1 1v7c0 .552-.449 1-1 1h-3c-.155 0-.309.036-.447.105zm9.447-4.105c-.552 0-1 .448-1 1s.448 1 1 1c.551 0 1 .449 1 1v7c0 .552-.449 1-1 1h-3c-.552 0-1 .448-1 1v1.382l-4.553-2.276c-.138-.069-.292-.106-.447-.106h-3c-.552 0-1 .448-1 1s.448 1 1 1h2.764l5.789 2.895c.141.07.294.105.447.105.183 0 .365-.05.526-.149.294-.182.474-.504.474-.851v-2h2c1.654 0 3-1.346 3-3v-7c0-1.654-1.346-3-3-3z"/></svg>