<svg enable-background="new 0 0 24 24" viewBox="0 0 24 24" xmlns="http://www.w3.org/2000/svg"><path d="m23 0h-11c-.553 0-1 .447-1 1s.447 1 1 1h10v20h-4c-.553 0-1 .447-1 1s.447 1 1 1h5c.553 0 1-.447 1-1v-22c0-.553-.447-1-1-1zm-5 16c0-.395-.081-.77-.22-1.116 1.275-.346 2.22-1.501 2.22-2.884s-.945-2.539-2.22-2.884c.139-.346.22-.721.22-1.116 0-1.654-1.346-3-3-3h-6c-.553 0-1 .447-1 1s.447 1 1 1h6c.552 0 1 .448 1 1s-.448 1-1 1h-6c-.553 0-1 .447-1 1s.447 1 1 1h8c.552 0 1 .448 1 1s-.448 1-1 1h-8c-.553 0-1 .447-1 1s.447 1 1 1h6c.552 0 1 .448 1 1s-.448 1-1 1h-6c-.553 0-1 .447-1 1s.447 1 1 1h4c.552 0 1 .448 1 1s-.448 1-1 1h-6c-2.757 0-5-2.243-5-5v-8c0-2.757 2.243-5 5-5h1c.553 0 1-.447 1-1s-.447-1-1-1h-1c-3.859 0-7 3.141-7 7v8c0 3.859 3.141 7 7 7h6c1.654 0 3-1.346 3-3 0-.395-.081-.77-.22-1.116 1.275-.346 2.22-1.501 2.22-2.884z"/></svg>