<svg viewBox="0 0 24 24" xmlns="http://www.w3.org/2000/svg"><path d="M8.254 13.642c.35.42.98.47 1.4.125 1.17-.98 3.53-.98 4.689.01 .18.16.41.23.64.23 .28 0 .56-.12.76-.36 .35-.43.3-1.06-.12-1.41 -.94-.8-2.27-1.26-3.65-1.26 -1.37 0-2.69.44-3.63 1.23 -.43.35-.48.98-.125 1.4ZM3 13.99c.552 0 1-.45 1-1v-11h16v11c0 .55.44 1 1 1 .55 0 1-.45 1-1v-12c0-.552-.45-1-1-1H3c-.552 0-1 .448-1 1v12c0 .55.44 1 1 1Zm12-7c0-1.654-1.346-3-3-3s-3 1.346-3 3 1.346 3 3 3 3-1.346 3-3Zm-4 0c0-.56.44-1 1-1 .55 0 1 .44 1 1 0 .55-.45 1-1 1 -.56 0-1-.45-1-1Zm12 9H1c-.552 0-1 .44-1 1 0 .55.448 1 1 1h4.61l-1.561 4.68c-.18.52.1 1.09.63 1.26 .1.03.21.05.31.05 .41 0 .8-.27.94-.69l1.77-5.32h8.558l1.77 5.31c.14.41.53.68.94.68 .1 0 .21-.02.31-.06 .52-.18.8-.75.63-1.27l-1.56-4.683h4.61c.55 0 1-.45 1-1 0-.56-.45-1-1-1Z"/></svg>