<svg enable-background="new 0 0 24 24" viewBox="0 0 24 24" xmlns="http://www.w3.org/2000/svg"><path d="m12 5c-.552 0-1 .447-1 1v12c0 .553.448 1 1 1s1-.447 1-1v-12c0-.553-.448-1-1-1zm6-4h-12c-2.757 0-5 2.243-5 5v12c0 2.757 2.243 5 5 5h12c2.757 0 5-2.243 5-5v-12c0-2.757-2.243-5-5-5zm3 17c0 1.654-1.346 3-3 3h-12c-1.654 0-3-1.346-3-3v-12c0-1.654 1.346-3 3-3h12c1.654 0 3 1.346 3 3zm-14-6c-.552 0-1 .447-1 1v5c0 .553.448 1 1 1s1-.447 1-1v-5c0-.553-.448-1-1-1zm10-4c-.552 0-1 .447-1 1v9c0 .553.448 1 1 1s1-.447 1-1v-9c0-.553-.448-1-1-1z"/></svg>