<svg viewBox="0 0 24 24" xmlns="http://www.w3.org/2000/svg"><path d="M21 2H3C1.34 2 0 3.346 0 5v14c0 1.654 1.346 3 3 3h18c1.654 0 3-1.346 3-3V5c0-1.654-1.346-3-3-3ZM11 20H6v-1.5C6 17.12 7.12 16 8.5 16c1.37 0 2.5 1.12 2.5 2.5Zm11-1c0 .55-.45 1-1 1h-8v-1.5c0-2.49-2.019-4.5-4.5-4.5C6.019 14 4 16.01 4 18.5V20H3c-.56 0-1-.45-1-1V5c0-.56.44-1 1-1h18c.55 0 1 .44 1 1ZM8.5 6C6.57 6 5 7.57 5 9.5 5 11.43 6.57 13 8.5 13c1.93 0 3.5-1.57 3.5-3.5C12 7.57 10.43 6 8.5 6Zm0 5C7.673 11 7 10.327 7 9.5 7 8.673 7.673 8 8.5 8c.827 0 1.5.673 1.5 1.5s-.673 1.5-1.5 1.5ZM19 12h-4c-.56 0-1 .44-1 1 0 .55.44 1 1 1h4c.55 0 1-.45 1-1 0-.56-.45-1-1-1Zm0-4h-4c-.56 0-1 .44-1 1 0 .55.44 1 1 1h4c.55 0 1-.45 1-1 0-.56-.45-1-1-1Z"/></svg>