<svg xmlns="http://www.w3.org/2000/svg" fill="none" viewBox="0 0 24 24" stroke-width="1.5" height="48" width="48"><path stroke="#4579e1" stroke-linecap="round" stroke-linejoin="round" stroke-miterlimit="10" d="M3.94995 0.75L6.94995 9.75"></path><path stroke="#4579e1" stroke-linecap="round" stroke-linejoin="round" stroke-miterlimit="10" d="M6.01562 6.95312C6.01562 6.95312 2.94995 8.22438 2.94995 12.25"></path><path stroke="#4579e1" stroke-linecap="round" stroke-linejoin="round" stroke-miterlimit="10" d="M11.75 12.45H0.75"></path><path stroke="#4579e1" stroke-linecap="round" stroke-linejoin="round" stroke-miterlimit="10" d="M0.75 12.45V23.25H5.75V12.55"></path><path stroke="#4579e1" stroke-linecap="round" stroke-linejoin="round" stroke-miterlimit="10" d="M16.75 6.44995C17.9927 6.44995 19 5.44259 19 4.19995C19 2.95731 17.9927 1.94995 16.75 1.94995C15.5074 1.94995 14.5 2.95731 14.5 4.19995C14.5 5.44259 15.5074 6.44995 16.75 6.44995Z"></path><path stroke="#4579e1" stroke-linecap="round" stroke-linejoin="round" stroke-miterlimit="10" d="M12.0291 21.5286L13.55 18.25C13.85 17.75 14.3501 17.45 14.8501 17.45H16.7501C17.5501 17.45 18.2501 16.75 18.2501 15.95V9.45001C18.2501 8.85001 17.95 8.35001 17.45 8.15001C16.95 7.85001 16.35 7.95001 15.95 8.25001L14.8501 8.95001C13.9501 9.55001 12.35 9.45001 10.55 9.45001C9.75005 9.45001 9.05005 10.15 9.05005 10.95C9.05005 11.75 9.75005 12.45 10.55 12.45H13.1501C13.8501 12.45 14.5501 12.35 15.2501 12.05V14.45H14.8501C13.1501 14.45 11.5501 15.45 10.8501 16.95L9.32906 20.2286C8.92906 20.9286 9.22907 21.8286 10.0291 22.2286C10.9291 22.6286 11.7291 22.1286 12.0291 21.5286Z"></path><path stroke="#4579e1" stroke-linecap="round" stroke-linejoin="round" stroke-miterlimit="10" d="M16.75 17.45H19.85C20.35 17.45 20.75 17.05 20.85 16.55L22.05 8.05002C22.15 7.55002 22.55 7.15002 23.05 7.15002H23.25"></path><path stroke="#4579e1" stroke-linecap="round" stroke-linejoin="round" stroke-miterlimit="10" d="M17.45 17.45V23.25"></path><path stroke="#4579e1" stroke-linecap="round" stroke-linejoin="round" stroke-miterlimit="10" d="M13.95 23.25H20.45"></path></svg>