<svg viewBox="0 0 24 24" xmlns="http://www.w3.org/2000/svg" stroke-width="1.5" height="48" width="48"><path d="M21.75,12V1.8A1.04,1.04,0,0,0,20.724.75H3.276A1.04,1.04,0,0,0,2.25,1.8V12" fill="none" stroke="#4579e1" stroke-linecap="round" stroke-linejoin="round"></path><path d="M3 18L3 23.25" fill="none" stroke="#4579e1" stroke-linecap="round" stroke-linejoin="round"></path><path d="M21 18L21 23.25" fill="none" stroke="#4579e1" stroke-linecap="round" stroke-linejoin="round"></path><path d="M3 21L21 21" fill="none" stroke="#4579e1" stroke-linecap="round" stroke-linejoin="round"></path><path d="M9.439,6.063,7.751,5.3a.614.614,0,0,0-.5,0l-1.688.76a.506.506,0,0,0-.311.454V8.4a.5.5,0,0,0,.306.451l1.944.9,1.944-.9A.5.5,0,0,0,9.75,8.4V6.517A.506.506,0,0,0,9.439,6.063Z" fill="none" stroke="#4579e1" stroke-linecap="round" stroke-linejoin="round"></path><path d="M12.75 10.045L9.398 8.877" fill="none" stroke="#4579e1" stroke-linecap="round"></path><path d="M7.5 9.75L7.5 12" fill="none" stroke="#4579e1" stroke-linecap="round" stroke-linejoin="round"></path><path d="M15 7.5L15 5.25" fill="none" stroke="#4579e1" stroke-linecap="round" stroke-linejoin="round"></path><path d="M17.25 3.75L18.75 3.75" fill="none" stroke="#4579e1" stroke-linecap="round" stroke-linejoin="round"></path><path d="M21.506,18H2.494a1.522,1.522,0,0,1-1.483-1.136l-.238-.932A.754.754,0,0,1,1.515,15h20.97a.754.754,0,0,1,.742.932l-.238.932A1.522,1.522,0,0,1,21.506,18Z" fill="none" stroke="#4579e1" stroke-linecap="round" stroke-linejoin="round"></path><path d="M13.061,11.186l1.687.76a.609.609,0,0,0,.5,0l1.688-.76a.5.5,0,0,0,.311-.453V8.849a.5.5,0,0,0-.306-.45L15,7.5l-1.944.9a.5.5,0,0,0-.306.45v1.884A.5.5,0,0,0,13.061,11.186Z" fill="none" stroke="#4579e1" stroke-linecap="round" stroke-linejoin="round"></path></svg>