<svg xmlns="http://www.w3.org/2000/svg" viewBox="0 0 24 24" stroke-width="1.5px" height="48" width="48"><g><path d="M12.75,21h1.5v2.25l3-2.25h4.5a1.5,1.5,0,0,0,1.5-1.5V15a1.5,1.5,0,0,0-1.5-1.5h-9a1.5,1.5,0,0,0-1.5,1.5v4.5A1.5,1.5,0,0,0,12.75,21Z" fill="none" stroke="#4579e1" stroke-linecap="round" stroke-linejoin="round"></path><g><circle cx="4.97" cy="16.87" r="2.62" fill="none" stroke="#4579e1" stroke-linecap="round" stroke-linejoin="round"></circle><path d="M9.2,23.25a4.48,4.48,0,0,0-8.45,0" fill="none" stroke="#4579e1" stroke-linecap="round" stroke-linejoin="round"></path></g><g><circle cx="19.03" cy="4.13" r="2.62" fill="none" stroke="#4579e1" stroke-linecap="round" stroke-linejoin="round"></circle><path d="M23.25,10.5a4.48,4.48,0,0,0-8.45,0" fill="none" stroke="#4579e1" stroke-linecap="round" stroke-linejoin="round"></path></g><line x1="14.75" y1="17.25" x2="18.75" y2="17.25" fill="none" stroke="#4579e1" stroke-linecap="round" stroke-linejoin="round"></line><path d="M11.25,8.25H9.75V10.5l-3-2.25H2.25a1.5,1.5,0,0,1-1.5-1.5V2.25A1.5,1.5,0,0,1,2.25.75h9a1.5,1.5,0,0,1,1.5,1.5v4.5A1.5,1.5,0,0,1,11.25,8.25Z" fill="none" stroke="#4579e1" stroke-linecap="round" stroke-linejoin="round"></path><line x1="8.25" y1="4.25" x2="4.25" y2="4.25" fill="none" stroke="#4579e1" stroke-linecap="round" stroke-linejoin="round"></line></g></svg>