<svg xmlns="http://www.w3.org/2000/svg" viewBox="0 0 24 24" stroke-width="1.5px" height="48" width="48"><g><rect x="0.75" y="0.75" width="22.5" height="22.5" rx="1.5" fill="none" stroke="#4579e1" stroke-linecap="round" stroke-linejoin="round"></rect><line x1="0.75" y1="12.75" x2="23.25" y2="12.75" fill="none" stroke="#4579e1" stroke-linecap="round" stroke-linejoin="round"></line><rect x="0.75" y="5.25" width="4" height="7.5" fill="none" stroke="#4579e1" stroke-linecap="round" stroke-linejoin="round"></rect><rect x="4.75" y="5.25" width="4" height="7.5" fill="none" stroke="#4579e1" stroke-linecap="round" stroke-linejoin="round"></rect><path d="M8.75,5.25h3.5a.5.5,0,0,1,.5.5v7a0,0,0,0,1,0,0h-4a0,0,0,0,1,0,0V5.25A0,0,0,0,1,8.75,5.25Z" fill="none" stroke="#4579e1" stroke-linecap="round" stroke-linejoin="round"></path><path d="M6.75,16.25h3.5a0,0,0,0,1,0,0v7a0,0,0,0,1,0,0h-4a0,0,0,0,1,0,0v-6.5A.5.5,0,0,1,6.75,16.25Z" fill="none" stroke="#4579e1" stroke-linecap="round" stroke-linejoin="round"></path><rect x="10.25" y="16.25" width="4" height="7" fill="none" stroke="#4579e1" stroke-linecap="round" stroke-linejoin="round"></rect><path d="M14.25,16.25h3.5a.5.5,0,0,1,.5.5v6.5a0,0,0,0,1,0,0h-4a0,0,0,0,1,0,0v-7A0,0,0,0,1,14.25,16.25Z" fill="none" stroke="#4579e1" stroke-linecap="round" stroke-linejoin="round"></path><path d="M19.75,5.25h3.5a0,0,0,0,1,0,0v7.5a0,0,0,0,1,0,0h-4a0,0,0,0,1,0,0v-7A.5.5,0,0,1,19.75,5.25Z" fill="none" stroke="#4579e1" stroke-linecap="round" stroke-linejoin="round"></path></g></svg>