<svg xmlns="http://www.w3.org/2000/svg" viewBox="0 0 24 24" stroke-width="1.5px" height="48" width="48"><defs></defs><path d="M13.978,22.938l.659-3.956h2.638L15.3,13.048c-.66-1.978-1.476-3.3-3.3-3.3s-2.637,1.319-3.3,3.3L6.725,18.982H9.363l.659,3.956Z" fill="none" stroke="#4579e1" stroke-linecap="round" stroke-linejoin="round"></path><circle cx="12" cy="5.795" r="2.637" fill="none" stroke="#4579e1" stroke-linecap="round" stroke-linejoin="round"></circle><circle cx="3.9" cy="2.862" r="1.8" fill="none" stroke="#4579e1" stroke-linecap="round" stroke-linejoin="round"></circle><path d="M6.283,6.651A3.151,3.151,0,0,0,.75,8.712v1.35H2.1l.45,4.5h2.7l.22-2.2" fill="none" stroke="#4579e1" stroke-linecap="round" stroke-linejoin="round"></path><circle cx="20.1" cy="2.862" r="1.8" fill="none" stroke="#4579e1" stroke-linecap="round" stroke-linejoin="round"></circle><path d="M17.717,6.651A3.151,3.151,0,0,1,23.25,8.712v1.35H21.9l-.45,4.5h-2.7l-.22-2.2" fill="none" stroke="#4579e1" stroke-linecap="round" stroke-linejoin="round"></path></svg>