<svg xmlns="http://www.w3.org/2000/svg" viewBox="0 0 24 24" stroke-width="1.5px" height="48" width="48"><g><path d="M17.75,3.4V1.73a1,1,0,0,0-1-1H3.23a1,1,0,0,0-1,1V22.27a1,1,0,0,0,1,1H16.77a1,1,0,0,0,1-1" fill="none" stroke="#4579e1" stroke-linecap="round" stroke-linejoin="round"></path><line x1="0.75" y1="6" x2="3.19" y2="6" fill="none" stroke="#4579e1" stroke-linecap="round" stroke-linejoin="round"></line><line x1="0.75" y1="12" x2="3.19" y2="12" fill="none" stroke="#4579e1" stroke-linecap="round" stroke-linejoin="round"></line><line x1="0.75" y1="18" x2="3.19" y2="18" fill="none" stroke="#4579e1" stroke-linecap="round" stroke-linejoin="round"></line><path d="M17.59,8a5.44,5.44,0,0,0-2.28-.51,5.37,5.37,0,0,0-5.37,5.37v2.74" fill="none" stroke="#4579e1" stroke-linecap="round" stroke-linejoin="round"></path><path d="M23.2,19.08c-1.83,1-3.84,1.44-5.38-.33H15a2,2,0,0,1,0-4h3.11" fill="none" stroke="#4579e1" stroke-linecap="round" stroke-linejoin="round"></path><line x1="20.49" y1="10.2" x2="23.25" y2="12.96" fill="none" stroke="#4579e1" stroke-linecap="round" stroke-linejoin="round"></line><path d="M13.27,17.79,8.52,19.6l1.47-4L20.34,5.2a1,1,0,0,1,1.38,0l1.2,1.19a1,1,0,0,1,0,1.39l-7,7" fill="none" stroke="#4579e1" stroke-linecap="round" stroke-linejoin="round"></path></g></svg>