<svg xmlns="http://www.w3.org/2000/svg" fill="none" viewBox="0 0 24 24" stroke-width="1.5" height="48" width="48"><path stroke="#4579e1" stroke-linecap="round" stroke-linejoin="round" d="M2 1.25H10.125C10.3902 1.25 10.6446 1.35536 10.8321 1.54289C11.0196 1.73043 11.125 1.98478 11.125 2.25V6.25H1V2.25C1 1.98478 1.10536 1.73043 1.29289 1.54289C1.48043 1.35536 1.73478 1.25 2 1.25V1.25Z"></path><path stroke="#4579e1" stroke-linecap="round" stroke-linejoin="round" d="M11.125 9.31604H1V18.316H11.125V9.31604Z"></path><path stroke="#4579e1" stroke-linecap="round" stroke-linejoin="round" d="M3.625 12.537H8.625"></path><path stroke="#4579e1" stroke-linecap="round" stroke-linejoin="round" d="M6.625 15.316H8.625"></path><path stroke="#4579e1" stroke-linecap="round" stroke-linejoin="round" d="M15.5 1.25H22C22.2652 1.25 22.5196 1.35536 22.7071 1.54289C22.8946 1.73043 23 1.98478 23 2.25V6.25H14.5V2.25C14.5 1.98478 14.6054 1.73043 14.7929 1.54289C14.9804 1.35536 15.2348 1.25 15.5 1.25V1.25Z"></path><path stroke="#4579e1" stroke-linecap="round" stroke-linejoin="round" d="M23 9.31604H14.5V15.316H23V9.31604Z"></path><path stroke="#4579e1" d="M20 4.25C19.7929 4.25 19.625 4.08211 19.625 3.875C19.625 3.66789 19.7929 3.5 20 3.5"></path><path stroke="#4579e1" d="M20 4.25C20.2071 4.25 20.375 4.08211 20.375 3.875C20.375 3.66789 20.2071 3.5 20 3.5"></path><path stroke="#4579e1" d="M8.125 4.25C7.91789 4.25 7.75 4.08211 7.75 3.875C7.75 3.66789 7.91789 3.5 8.125 3.5"></path><path stroke="#4579e1" d="M8.125 4.25C8.33211 4.25 8.5 4.08211 8.5 3.875C8.5 3.66789 8.33211 3.5 8.125 3.5"></path><path stroke="#4579e1" stroke-linecap="round" stroke-linejoin="round" d="M17 12.316H20.5"></path><path stroke="#4579e1" stroke-linecap="round" stroke-linejoin="round" d="M23 18.316H14.5V22.75H23V18.316Z"></path></svg>