<svg viewBox="0 0 24 24" xmlns="http://www.w3.org/2000/svg" stroke-width="1.5" height="48" width="48"><path d="M12.750 11.251 L23.250 11.251 L23.250 23.251 L12.750 23.251 Z" fill="none" stroke="#4579e1" stroke-linecap="round" stroke-linejoin="round"></path><path d="M18 14.251L20.25 14.251" fill="none" stroke="#4579e1" stroke-linecap="round" stroke-linejoin="round"></path><path d="M15.75 17.251L20.25 17.251" fill="none" stroke="#4579e1" stroke-linecap="round" stroke-linejoin="round"></path><path d="M15.75 20.251L20.25 20.251" fill="none" stroke="#4579e1" stroke-linecap="round" stroke-linejoin="round"></path><path d="M9.754,20.223A9.75,9.75,0,1,1,19.99,8.255" fill="none" stroke="#4579e1" stroke-linecap="round" stroke-linejoin="round"></path><path d="M6.75,19.5V15s1.009-.46,1.27-1.048a1.3,1.3,0,0,0-.04-1.139L6.721,10.448A1.3,1.3,0,0,0,5.259,9.8l-4.5,1.122" fill="none" stroke="#4579e1" stroke-linecap="round" stroke-linejoin="round"></path><path d="M5.25,2.284V6.236A1.3,1.3,0,0,0,6.235,7.5l1.9.65A1.3,1.3,0,0,0,9.75,6.886V5.518l4.164-.686A1.3,1.3,0,0,0,15,3.55V1.85" fill="none" stroke="#4579e1" stroke-linecap="round" stroke-linejoin="round"></path></svg>