<svg xmlns="http://www.w3.org/2000/svg" fill="none" viewBox="0 0 24 24" stroke-width="1.5" height="48" width="48"><path stroke="#4579e1" stroke-linecap="round" stroke-linejoin="round" stroke-miterlimit="10" d="M6.75 6.75V7.75"></path><path stroke="#4579e1" stroke-linecap="round" stroke-linejoin="round" stroke-miterlimit="10" d="M6.75 10.75V11.75"></path><path stroke="#4579e1" stroke-linecap="round" stroke-linejoin="round" stroke-miterlimit="10" d="M6.75 14.75V15.75"></path><path stroke="#4579e1" stroke-linecap="round" stroke-linejoin="round" stroke-miterlimit="10" d="M12 6.75V7.75"></path><path stroke="#4579e1" stroke-linecap="round" stroke-linejoin="round" stroke-miterlimit="10" d="M12 10.75V11.75"></path><path stroke="#4579e1" stroke-linecap="round" stroke-linejoin="round" stroke-miterlimit="10" d="M12 14.75V15.75"></path><path stroke="#4579e1" stroke-linecap="round" stroke-linejoin="round" stroke-miterlimit="10" d="M17.25 6.75V7.75"></path><path stroke="#4579e1" stroke-linecap="round" stroke-linejoin="round" stroke-miterlimit="10" d="M17.25 10.75V11.75"></path><path stroke="#4579e1" stroke-linecap="round" stroke-linejoin="round" stroke-miterlimit="10" d="M17.25 14.75V15.75"></path><path stroke="#4579e1" stroke-linecap="round" stroke-linejoin="round" stroke-miterlimit="10" d="M21 3.75V23.25H3V3.75"></path><path stroke="#4579e1" stroke-linecap="round" stroke-linejoin="round" stroke-miterlimit="10" d="M18.5 3.75V0.75H5.5V3.75"></path><path stroke="#4579e1" stroke-linecap="round" stroke-linejoin="round" stroke-miterlimit="10" d="M23.25 23.25H0.75"></path><path stroke="#4579e1" stroke-linecap="round" stroke-linejoin="round" stroke-miterlimit="10" d="M22.25 3.75H1.75"></path><path stroke="#4579e1" stroke-linecap="round" stroke-linejoin="round" stroke-miterlimit="10" d="M6.75 18.75V19.75"></path><path stroke="#4579e1" stroke-linecap="round" stroke-linejoin="round" stroke-miterlimit="10" d="M17.25 18.75V19.75"></path><path stroke="#4579e1" stroke-linecap="round" stroke-linejoin="round" stroke-miterlimit="10" d="M14 23.25V20.75C14 19.65 13.1 18.75 12 18.75C10.9 18.75 10 19.65 10 20.75V23.25"></path></svg>