<svg xmlns="http://www.w3.org/2000/svg" fill="none" viewBox="0 0 24 24" stroke-width="1.5" height="48" width="48"><path stroke="#4579e1" stroke-linecap="round" stroke-linejoin="round" d="M0.771233 7.98221H2.72864C2.9882 7.98221 3.23714 8.08532 3.42068 8.26886C3.60422 8.45241 3.70734 8.70134 3.70734 8.96091V20.7053C3.70734 20.9649 3.60422 21.2138 3.42068 21.3974C3.23714 21.5809 2.9882 21.684 2.72864 21.684H0.771233"></path><path stroke="#4579e1" stroke-linecap="round" stroke-linejoin="round" d="M3.70734 19.0917C7.72001 21.3756 10.5396 22.5078 16.6898 22.5078C20.3986 22.5078 23.6875 15.0809 23.1761 11.4114C23.0012 10.1561 22.6022 9.3113 21.324 9.30469H16.5283C15.2648 9.30476 14.3133 8.06987 14.6355 6.84815L15.4987 3.57537C15.962 1.81345 13.5487 0.695118 12.5039 2.18757L7.72001 8.96508C7.5393 9.2212 7.29972 9.43018 7.02143 9.57444C6.74314 9.71869 6.43427 9.79401 6.12081 9.79404H3.70734"></path></svg>