<svg width="341" height="68" viewBox="0 0 341 68" fill="none" xmlns="http://www.w3.org/2000/svg">
<path d="M95.125 39.35L90.725 27.325C90.5083 26.7917 90.2833 26.1583 90.05 25.425C89.8167 24.6917 89.5833 23.9 89.35 23.05C89.1333 23.9 88.9083 24.7 88.675 25.45C88.4417 26.1833 88.2167 26.825 88 27.375L83.625 39.35H95.125ZM107 53H101.8C101.217 53 100.742 52.8583 100.375 52.575C100.008 52.275 99.7333 51.9083 99.55 51.475L96.85 44.1H81.875L79.175 51.475C79.0417 51.8583 78.7833 52.2083 78.4 52.525C78.0167 52.8417 77.5417 53 76.975 53H71.725L85.95 16.85H92.8L107 53ZM127.458 32.775C127.275 33.0083 127.092 33.1917 126.908 33.325C126.742 33.4583 126.492 33.525 126.158 33.525C125.842 33.525 125.533 33.4333 125.233 33.25C124.933 33.05 124.575 32.8333 124.158 32.6C123.742 32.35 123.242 32.1333 122.658 31.95C122.092 31.75 121.383 31.65 120.533 31.65C119.45 31.65 118.5 31.85 117.683 32.25C116.867 32.6333 116.183 33.1917 115.633 33.925C115.1 34.6583 114.7 35.55 114.433 36.6C114.167 37.6333 114.033 38.8083 114.033 40.125C114.033 41.4917 114.175 42.7083 114.458 43.775C114.758 44.8417 115.183 45.7417 115.733 46.475C116.283 47.1917 116.95 47.7417 117.733 48.125C118.517 48.4917 119.4 48.675 120.383 48.675C121.367 48.675 122.158 48.5583 122.758 48.325C123.375 48.075 123.892 47.8083 124.308 47.525C124.725 47.225 125.083 46.9583 125.383 46.725C125.7 46.475 126.05 46.35 126.433 46.35C126.933 46.35 127.308 46.5417 127.558 46.925L129.333 49.175C128.65 49.975 127.908 50.65 127.108 51.2C126.308 51.7333 125.475 52.1667 124.608 52.5C123.758 52.8167 122.875 53.0417 121.958 53.175C121.058 53.3083 120.158 53.375 119.258 53.375C117.675 53.375 116.183 53.0833 114.783 52.5C113.383 51.9 112.158 51.0333 111.108 49.9C110.058 48.7667 109.225 47.3833 108.608 45.75C108.008 44.1 107.708 42.225 107.708 40.125C107.708 38.2417 107.975 36.5 108.508 34.9C109.058 33.2833 109.858 31.8917 110.908 30.725C111.958 29.5417 113.258 28.6167 114.808 27.95C116.358 27.2833 118.142 26.95 120.158 26.95C122.075 26.95 123.75 27.2583 125.183 27.875C126.633 28.4917 127.933 29.375 129.083 30.525L127.458 32.775ZM146.754 42.05C144.971 42.1333 143.471 42.2917 142.254 42.525C141.038 42.7417 140.063 43.025 139.329 43.375C138.596 43.725 138.071 44.1333 137.754 44.6C137.438 45.0667 137.279 45.575 137.279 46.125C137.279 47.2083 137.596 47.9833 138.229 48.45C138.879 48.9167 139.721 49.15 140.754 49.15C142.021 49.15 143.113 48.925 144.029 48.475C144.963 48.0083 145.871 47.3083 146.754 46.375V42.05ZM132.604 30.925C135.554 28.225 139.104 26.875 143.254 26.875C144.754 26.875 146.096 27.125 147.279 27.625C148.463 28.1083 149.463 28.7917 150.279 29.675C151.096 30.5417 151.713 31.5833 152.129 32.8C152.563 34.0167 152.779 35.35 152.779 36.8V53H149.979C149.396 53 148.946 52.9167 148.629 52.75C148.313 52.5667 148.063 52.2083 147.879 51.675L147.329 49.825C146.679 50.4083 146.046 50.925 145.429 51.375C144.813 51.8083 144.171 52.175 143.504 52.475C142.838 52.775 142.121 53 141.354 53.15C140.604 53.3167 139.771 53.4 138.854 53.4C137.771 53.4 136.771 53.2583 135.854 52.975C134.938 52.675 134.146 52.2333 133.479 51.65C132.813 51.0667 132.296 50.3417 131.929 49.475C131.563 48.6083 131.379 47.6 131.379 46.45C131.379 45.8 131.488 45.1583 131.704 44.525C131.921 43.875 132.271 43.2583 132.754 42.675C133.254 42.0917 133.896 41.5417 134.679 41.025C135.463 40.5083 136.421 40.0583 137.554 39.675C138.704 39.2917 140.038 38.9833 141.554 38.75C143.071 38.5 144.804 38.35 146.754 38.3V36.8C146.754 35.0833 146.388 33.8167 145.654 33C144.921 32.1667 143.863 31.75 142.479 31.75C141.479 31.75 140.646 31.8667 139.979 32.1C139.329 32.3333 138.754 32.6 138.254 32.9C137.754 33.1833 137.296 33.4417 136.879 33.675C136.479 33.9083 136.029 34.025 135.529 34.025C135.096 34.025 134.729 33.9167 134.429 33.7C134.129 33.4667 133.888 33.2 133.704 32.9L132.604 30.925ZM174.695 33.9C173.995 33.05 173.228 32.45 172.395 32.1C171.578 31.75 170.695 31.575 169.745 31.575C168.812 31.575 167.97 31.75 167.22 32.1C166.47 32.45 165.828 32.9833 165.295 33.7C164.762 34.4 164.353 35.3 164.07 36.4C163.787 37.4833 163.645 38.7667 163.645 40.25C163.645 41.75 163.762 43.025 163.995 44.075C164.245 45.1083 164.595 45.9583 165.045 46.625C165.495 47.275 166.045 47.75 166.695 48.05C167.345 48.3333 168.07 48.475 168.87 48.475C170.153 48.475 171.245 48.2083 172.145 47.675C173.045 47.1417 173.895 46.3833 174.695 45.4V33.9ZM180.87 15.85V53H177.095C176.278 53 175.762 52.625 175.545 51.875L175.02 49.4C173.987 50.5833 172.795 51.5417 171.445 52.275C170.112 53.0083 168.553 53.375 166.77 53.375C165.37 53.375 164.087 53.0833 162.92 52.5C161.753 51.9167 160.745 51.075 159.895 49.975C159.062 48.8583 158.412 47.4833 157.945 45.85C157.495 44.2167 157.27 42.35 157.27 40.25C157.27 38.35 157.528 36.5833 158.045 34.95C158.562 33.3167 159.303 31.9 160.27 30.7C161.237 29.5 162.395 28.5667 163.745 27.9C165.095 27.2167 166.612 26.875 168.295 26.875C169.728 26.875 170.953 27.1 171.97 27.55C172.987 28 173.895 28.6083 174.695 29.375V15.85H180.87ZM203.489 37.225C203.489 36.425 203.372 35.675 203.139 34.975C202.922 34.2583 202.589 33.6333 202.139 33.1C201.689 32.5667 201.114 32.15 200.414 31.85C199.731 31.5333 198.931 31.375 198.014 31.375C196.231 31.375 194.822 31.8833 193.789 32.9C192.772 33.9167 192.122 35.3583 191.839 37.225H203.489ZM191.714 40.95C191.814 42.2667 192.047 43.4083 192.414 44.375C192.781 45.325 193.264 46.1167 193.864 46.75C194.464 47.3667 195.172 47.8333 195.989 48.15C196.822 48.45 197.739 48.6 198.739 48.6C199.739 48.6 200.597 48.4833 201.314 48.25C202.047 48.0167 202.681 47.7583 203.214 47.475C203.764 47.1917 204.239 46.9333 204.639 46.7C205.056 46.4667 205.456 46.35 205.839 46.35C206.356 46.35 206.739 46.5417 206.989 46.925L208.764 49.175C208.081 49.975 207.314 50.65 206.464 51.2C205.614 51.7333 204.722 52.1667 203.789 52.5C202.872 52.8167 201.931 53.0417 200.964 53.175C200.014 53.3083 199.089 53.375 198.189 53.375C196.406 53.375 194.747 53.0833 193.214 52.5C191.681 51.9 190.347 51.025 189.214 49.875C188.081 48.7083 187.189 47.275 186.539 45.575C185.889 43.8583 185.564 41.875 185.564 39.625C185.564 37.875 185.847 36.2333 186.414 34.7C186.981 33.15 187.789 31.8083 188.839 30.675C189.906 29.525 191.197 28.6167 192.714 27.95C194.247 27.2833 195.972 26.95 197.889 26.95C199.506 26.95 200.997 27.2083 202.364 27.725C203.731 28.2417 204.906 29 205.889 30C206.872 30.9833 207.639 32.2 208.189 33.65C208.756 35.0833 209.039 36.725 209.039 38.575C209.039 39.5083 208.939 40.1417 208.739 40.475C208.539 40.7917 208.156 40.95 207.589 40.95H191.714ZM213.673 53V27.35H217.448C218.248 27.35 218.773 27.725 219.023 28.475L219.423 30.375C219.873 29.875 220.34 29.4167 220.823 29C221.323 28.5833 221.848 28.225 222.398 27.925C222.965 27.625 223.565 27.3917 224.198 27.225C224.848 27.0417 225.556 26.95 226.323 26.95C227.94 26.95 229.265 27.3917 230.298 28.275C231.348 29.1417 232.131 30.3 232.648 31.75C233.048 30.9 233.548 30.175 234.148 29.575C234.748 28.9583 235.406 28.4583 236.123 28.075C236.84 27.6917 237.598 27.4083 238.398 27.225C239.215 27.0417 240.031 26.95 240.848 26.95C242.265 26.95 243.523 27.1667 244.623 27.6C245.723 28.0333 246.648 28.6667 247.398 29.5C248.148 30.3333 248.715 31.35 249.098 32.55C249.498 33.75 249.698 35.125 249.698 36.675V53H243.523V36.675C243.523 35.0417 243.165 33.8167 242.448 33C241.731 32.1667 240.681 31.75 239.298 31.75C238.665 31.75 238.073 31.8583 237.523 32.075C236.99 32.2917 236.515 32.6083 236.098 33.025C235.698 33.425 235.381 33.9333 235.148 34.55C234.915 35.1667 234.798 35.875 234.798 36.675V53H228.598V36.675C228.598 34.9583 228.248 33.7083 227.548 32.925C226.865 32.1417 225.856 31.75 224.523 31.75C223.623 31.75 222.781 31.975 221.998 32.425C221.231 32.8583 220.515 33.4583 219.848 34.225V53H213.673ZM278.184 27.35L264.209 60.05C264.026 60.4833 263.784 60.8083 263.484 61.025C263.201 61.2583 262.759 61.375 262.159 61.375H257.559L262.359 51.075L251.984 27.35H257.409C257.892 27.35 258.267 27.4667 258.534 27.7C258.817 27.9333 259.026 28.2 259.159 28.5L264.609 41.8C264.792 42.25 264.942 42.7 265.059 43.15C265.192 43.6 265.317 44.0583 265.434 44.525C265.584 44.0583 265.734 43.6 265.884 43.15C266.034 42.6833 266.201 42.225 266.384 41.775L271.534 28.5C271.667 28.1667 271.884 27.8917 272.184 27.675C272.501 27.4583 272.851 27.35 273.234 27.35H278.184ZM287.651 27.35V53H281.451V27.35H287.651ZM288.501 19.875C288.501 20.4083 288.393 20.9083 288.176 21.375C287.96 21.8417 287.668 22.25 287.301 22.6C286.951 22.95 286.535 23.2333 286.051 23.45C285.568 23.65 285.051 23.75 284.501 23.75C283.968 23.75 283.46 23.65 282.976 23.45C282.51 23.2333 282.101 22.95 281.751 22.6C281.401 22.25 281.118 21.8417 280.901 21.375C280.701 20.9083 280.601 20.4083 280.601 19.875C280.601 19.325 280.701 18.8083 280.901 18.325C281.118 17.8417 281.401 17.425 281.751 17.075C282.101 16.725 282.51 16.45 282.976 16.25C283.46 16.0333 283.968 15.925 284.501 15.925C285.051 15.925 285.568 16.0333 286.051 16.25C286.535 16.45 286.951 16.725 287.301 17.075C287.668 17.425 287.96 17.8417 288.176 18.325C288.393 18.8083 288.501 19.325 288.501 19.875ZM309.596 32.35C309.43 32.6167 309.255 32.8083 309.071 32.925C308.888 33.025 308.655 33.075 308.371 33.075C308.071 33.075 307.746 32.9917 307.396 32.825C307.063 32.6583 306.671 32.475 306.221 32.275C305.771 32.0583 305.255 31.8667 304.671 31.7C304.105 31.5333 303.43 31.45 302.646 31.45C301.43 31.45 300.471 31.7083 299.771 32.225C299.088 32.7417 298.746 33.4167 298.746 34.25C298.746 34.8 298.921 35.2667 299.271 35.65C299.638 36.0167 300.113 36.3417 300.696 36.625C301.296 36.9083 301.971 37.1667 302.721 37.4C303.471 37.6167 304.23 37.8583 304.996 38.125C305.78 38.3917 306.546 38.7 307.296 39.05C308.046 39.3833 308.713 39.8167 309.296 40.35C309.896 40.8667 310.371 41.4917 310.721 42.225C311.088 42.9583 311.271 43.8417 311.271 44.875C311.271 46.1083 311.046 47.25 310.596 48.3C310.163 49.3333 309.513 50.2333 308.646 51C307.78 51.75 306.705 52.3417 305.421 52.775C304.155 53.1917 302.688 53.4 301.021 53.4C300.138 53.4 299.271 53.3167 298.421 53.15C297.588 53 296.78 52.7833 295.996 52.5C295.23 52.2167 294.513 51.8833 293.846 51.5C293.196 51.1167 292.621 50.7 292.121 50.25L293.546 47.9C293.73 47.6167 293.946 47.4 294.196 47.25C294.446 47.1 294.763 47.025 295.146 47.025C295.53 47.025 295.888 47.1333 296.221 47.35C296.571 47.5667 296.971 47.8 297.421 48.05C297.871 48.3 298.396 48.5333 298.996 48.75C299.613 48.9667 300.388 49.075 301.321 49.075C302.055 49.075 302.68 48.9917 303.196 48.825C303.73 48.6417 304.163 48.4083 304.496 48.125C304.846 47.8417 305.096 47.5167 305.246 47.15C305.413 46.7667 305.496 46.375 305.496 45.975C305.496 45.375 305.313 44.8833 304.946 44.5C304.596 44.1167 304.121 43.7833 303.521 43.5C302.938 43.2167 302.263 42.9667 301.496 42.75C300.746 42.5167 299.971 42.2667 299.171 42C298.388 41.7333 297.613 41.425 296.846 41.075C296.096 40.7083 295.421 40.25 294.821 39.7C294.238 39.15 293.763 38.475 293.396 37.675C293.046 36.875 292.871 35.9083 292.871 34.775C292.871 33.725 293.08 32.725 293.496 31.775C293.913 30.825 294.521 30 295.321 29.3C296.138 28.5833 297.146 28.0167 298.346 27.6C299.563 27.1667 300.963 26.95 302.546 26.95C304.313 26.95 305.921 27.2417 307.371 27.825C308.821 28.4083 310.03 29.175 310.996 30.125L309.596 32.35Z" fill="black"/>
<path fill-rule="evenodd" clip-rule="evenodd" d="M36 68C45.3888 68 53 60.3888 53 51C53 41.6112 45.3888 34 36 34V68Z" fill="#FFC75B"/>
<path fill-rule="evenodd" clip-rule="evenodd" d="M36 0.0434231V67.9277C35.3382 67.9661 34.6714 67.9856 34 67.9856C15.2223 67.9856 0 52.7633 0 33.9856C0 15.5424 14.6848 0.529009 33 0H35C35.3346 0.00966353 35.6679 0.0241604 36 0.0434231ZM36 34C26.6112 34 19 41.6112 19 51C19 60.3888 26.6112 68 36 68V34Z" fill="#DF6690"/>
<rect x="332" y="5" width="9" height="59" fill="#DF6690"/>
</svg>
